# This file uses centimeters as units for non-parametric coordinates.

mtllib Zelda Sword.mtl
g default
v -7.529542 8.329120 0.029722
v -9.465599 18.080772 -0.342466
v 0.000000 0.596083 1.292544
v 0.000000 23.110172 1.292544
v -5.664779 5.473477 0.515467
v -6.095384 19.175249 0.422484
v -2.229798 2.237856 1.090075
v -1.927206 21.586435 1.132025
v -4.111833 3.942679 0.729635
v -4.134427 20.220752 0.791227
v -9.069463 16.085487 -0.324659
v -6.007277 16.371729 0.365107
v -4.129804 16.890096 0.799990
v -1.989119 17.627522 1.166193
v 0.000000 18.503564 1.292544
v -8.542308 13.430281 -0.159296
v -5.890031 12.640974 0.477934
v -4.123652 12.457859 0.861323
v -2.071509 12.359239 1.177549
v 0.000000 12.373368 1.292544
v -8.025681 10.828107 -0.061262
v -5.775127 8.984734 0.372969
v -4.117623 8.114146 0.791227
v -2.152255 7.196180 1.150568
v 0.000000 6.365610 1.292544
v 7.529542 8.329120 0.029722
v 9.465599 18.080772 -0.342466
v 5.664779 5.473477 0.515467
v 6.095384 19.175249 0.422484
v 2.229798 2.237856 1.090075
v 1.927206 21.586435 1.132025
v 4.111833 3.942679 0.729635
v 4.134427 20.220752 0.791227
v 9.069463 16.085487 -0.324659
v 6.007277 16.371729 0.365107
v 4.129804 16.890096 0.799990
v 1.989119 17.627522 1.166193
v 8.542308 13.430281 -0.159296
v 5.890031 12.640974 0.477934
v 4.123652 12.457859 0.861323
v 2.071509 12.359239 1.177549
v 8.025681 10.828107 -0.061262
v 5.775127 8.984734 0.372969
v 4.117623 8.114146 0.791227
v 2.152255 7.196180 1.150568
v -2.239989 7.191399 1.840880
v -0.000000 6.362917 1.988421
v -5.923055 8.982210 1.052939
v -4.250226 8.109404 1.474341
v -6.157422 16.371556 1.044600
v -4.259188 16.893243 1.483732
v -2.068750 17.631097 1.857493
v 0.000000 18.505925 1.988421
v -6.047497 12.638094 1.155756
v -4.260515 12.456184 1.543608
v -2.150036 12.359061 1.868986
v -0.000000 12.373184 1.988424
v 2.239989 7.191399 1.840880
v 5.923055 8.982210 1.052939
v 4.250226 8.109404 1.474341
v 6.157422 16.371556 1.044600
v 4.259188 16.893243 1.483732
v 2.068750 17.631097 1.857493
v 6.047497 12.638094 1.155756
v 4.260515 12.456184 1.543608
v 2.150036 12.359061 1.868986
v -2.314253 2.232700 1.702677
v -2.323380 2.308474 1.779303
v -0.000000 0.675272 1.986151
v 0.000000 0.592924 1.918257
v -7.603737 8.369092 0.724154
v -7.653889 8.340424 0.643690
v -8.155540 10.826330 0.536993
v -8.109391 10.773762 0.630892
v -5.746127 5.527161 1.206949
v -5.785740 5.481475 1.129812
v -4.230743 3.941389 1.345064
v -4.197941 3.991933 1.422430
v -6.225414 19.162568 1.035147
v -6.213219 19.096875 1.107195
v -9.536333 18.012800 0.352236
v -9.599937 18.062173 0.269201
v -9.154428 16.088442 0.369288
v -9.206994 16.082655 0.286295
v -4.248609 20.219593 1.407053
v -4.227719 20.158963 1.481196
v -2.001302 21.590028 1.745314
v -2.011728 21.512979 1.822878
v 0.000000 23.113013 1.918543
v 0.000000 23.028476 1.986452
v -8.632708 13.442819 0.533701
v -8.683239 13.428607 0.450998
v 2.323380 2.308474 1.779303
v 2.314264 2.232699 1.702757
v 5.785740 5.481475 1.129812
v 5.746127 5.527161 1.206949
v 7.603699 8.369108 0.724161
v 7.653880 8.340423 0.643652
v 8.109391 10.773762 0.630892
v 8.155540 10.826330 0.536993
v 4.197940 3.991933 1.422430
v 4.230742 3.941389 1.345064
v 9.206994 16.082656 0.286295
v 9.154428 16.088443 0.369288
v 9.536263 18.012758 0.352247
v 9.599923 18.062176 0.269140
v 6.213219 19.096876 1.107195
v 6.225414 19.162568 1.035147
v 4.227719 20.158963 1.481196
v 4.248609 20.219593 1.407053
v 2.011728 21.512979 1.822878
v 2.001524 21.590039 1.747152
v 8.683239 13.428607 0.450998
v 8.632708 13.442819 0.533701
vt 0.641216 0.301228
vt 0.695748 0.298893
vt 0.750791 0.299274
vt 0.860374 0.300939
vt 0.805834 0.298748
vt 0.303945 0.171954
vt 0.247104 0.151099
vt 0.401826 0.217207
vt 0.356675 0.195135
vt 0.410874 0.410638
vt 0.360600 0.424996
vt 0.304013 0.445189
vt 0.252177 0.468969
vt 0.405723 0.312966
vt 0.358326 0.308919
vt 0.303930 0.307196
vt 0.249615 0.308432
vt 0.190958 0.173758
vt 0.094570 0.222111
vt 0.138994 0.198609
vt 0.091699 0.415732
vt 0.142406 0.428478
vt 0.199609 0.446855
vt 0.093731 0.317945
vt 0.140975 0.312388
vt 0.195289 0.308930
vt 0.553994 0.196186
vt 0.693352 0.167344
vt 0.750424 0.002818
vt 0.603019 0.124144
vt 0.597391 0.212383
vt 0.641384 0.190397
vt 0.691473 0.042760
vt 0.642729 0.084698
vt 0.504571 0.442623
vt 0.512498 0.393937
vt 0.591412 0.400827
vt 0.590182 0.470883
vt 0.641054 0.414386
vt 0.642113 0.498002
vt 0.697878 0.433034
vt 0.699647 0.532243
vt 0.751005 0.455009
vt 0.526519 0.326040
vt 0.540340 0.257578
vt 0.594487 0.305664
vt 0.750597 0.146519
vt 0.809473 0.042611
vt 0.961135 0.257021
vt 0.903964 0.211988
vt 0.947318 0.195677
vt 0.807892 0.167198
vt 0.858316 0.084436
vt 0.859916 0.190118
vt 0.898119 0.123776
vt 0.911877 0.470443
vt 0.910451 0.400395
vt 0.997408 0.441949
vt 0.860022 0.497700
vt 0.802589 0.532091
vt 0.860846 0.414087
vt 0.751175 0.568864
vt 0.804073 0.432888
vt 0.989347 0.393288
vt 0.907116 0.305249
vt 0.975140 0.325436
vt 0.393567 0.728385
vt 0.362022 0.728472
vt 0.277357 0.695435
vt 0.248499 0.693837
vt 0.313280 0.707655
vt 0.275237 0.702002
vt 0.363689 0.721868
vt 0.334648 0.720349
vt 0.336634 0.713737
vt 0.311210 0.714234
vt 0.172428 0.663838
vt 0.823948 0.703570
vt 0.194055 0.669696
vt 0.861139 0.688859
vt 0.821457 0.697136
vt 0.800348 0.711904
vt 0.798060 0.705396
vt 0.772493 0.720766
vt 0.770612 0.714227
vt 0.745641 0.727831
vt 0.222452 0.678966
vt 0.192054 0.676297
vt 0.250455 0.687384
vt 0.220432 0.685562
vt 0.424090 0.730257
vt 0.392619 0.735211
vt 0.514359 0.728353
vt 0.476663 0.737215
vt 0.542436 0.727939
vt 0.514608 0.735249
vt 0.452337 0.729807
vt 0.423894 0.737067
vt 0.476465 0.730321
vt 0.452446 0.736710
vt 0.623927 0.726550
vt 0.601648 0.733188
vt 0.663855 0.726755
vt 0.623876 0.733449
vt 0.688653 0.725957
vt 0.663870 0.733654
vt 0.717435 0.724221
vt 0.688885 0.732852
vt 0.744368 0.721055
vt 0.718059 0.731017
vt 0.601521 0.726291
vt 0.571819 0.734369
vt 0.571673 0.727471
vt 0.542559 0.734681
vt 0.861208 0.499902
vt 0.802981 0.534862
vt 0.912880 0.472748
vt 1.000000 0.443602
vt 0.991858 0.393064
vt 0.977585 0.324924
vt 0.963917 0.258084
vt 0.949629 0.194637
vt 0.900026 0.122157
vt 0.859960 0.082546
vt 0.810004 0.039878
vt 0.751180 0.571734
vt 0.699244 0.535047
vt 0.640934 0.500207
vt 0.509987 0.393720
vt 0.524072 0.325535
vt 0.501986 0.444282
vt 0.589185 0.473190
vt 0.601108 0.122529
vt 0.641082 0.082813
vt 0.537560 0.258649
vt 0.551682 0.195153
vt 0.750421 0.000000
vt 0.690935 0.040028
vt 0.035314 0.271365
vt 0.022642 0.339774
vt 0.009368 0.409573
vt 0.000000 0.462030
vt 0.143713 0.515718
vt 0.090990 0.489212
vt 0.137208 0.089331
vt 0.096775 0.130064
vt 0.202812 0.550512
vt 0.186737 0.043933
vt 0.047490 0.205675
vt 0.254103 0.589610
vt 0.244692 0.000000
vt 0.462623 0.264545
vt 0.477472 0.332515
vt 0.492968 0.401855
vt 0.504004 0.453986
vt 0.362078 0.512233
vt 0.413929 0.484057
vt 0.354973 0.085855
vt 0.396685 0.125277
vt 0.304119 0.548895
vt 0.304020 0.042061
vt 0.448358 0.199277
vt 0.858586 0.682448
vt 0.170596 0.670492
vn -0.216896 0.001137 0.976194
vn -0.226134 -0.002750 0.974092
vn -0.191080 -0.001441 0.981573
vn -0.182235 0.005964 0.983237
vn -0.108144 -0.000154 0.994135
vn -0.109007 0.004895 0.994029
vn 0.000000 -0.000307 1.000000
vn 0.000000 0.003300 0.999995
vn -0.214905 -0.006294 0.976615
vn -0.187992 -0.007806 0.982140
vn -0.117538 -0.006444 0.993047
vn 0.000000 -0.004082 0.999992
vn 0.216896 0.001137 0.976194
vn 0.182235 0.005964 0.983237
vn 0.191080 -0.001441 0.981573
vn 0.226134 -0.002750 0.974092
vn 0.109007 0.004895 0.994029
vn 0.108144 -0.000154 0.994135
vn 0.187992 -0.007806 0.982140
vn 0.214905 -0.006294 0.976615
vn 0.117539 -0.006444 0.993047
vn 0.118909 0.006394 -0.992885
vn -0.000000 0.003871 -0.999993
vn -0.000000 0.005050 -0.999987
vn 0.106718 0.006558 -0.994268
vn 0.220921 0.016507 -0.975152
vn 0.214364 0.005813 -0.976737
vn 0.189703 -0.009327 -0.981797
vn 0.198464 -0.018041 -0.979942
vn 0.188264 0.007711 -0.982088
vn 0.190824 0.007920 -0.981592
vn 0.207016 0.019481 -0.978144
vn 0.216841 -0.000796 -0.976207
vn 0.219535 0.004938 -0.975592
vn 0.214421 0.029687 -0.976290
vn 0.174188 -0.002087 -0.984710
vn 0.182491 -0.005842 -0.983190
vn 0.102258 -0.005300 -0.994744
vn 0.109931 -0.004860 -0.993927
vn -0.000000 -0.004539 -0.999990
vn -0.000000 -0.003150 -0.999995
vn 0.226052 0.002606 -0.974112
vn 0.224889 -0.006768 -0.974361
vn 0.191532 0.001470 -0.981485
vn 0.108671 0.000152 -0.994078
vn -0.000000 0.000284 -1.000000
vn -0.118909 0.006394 -0.992885
vn -0.106718 0.006558 -0.994268
vn -0.220920 0.016507 -0.975152
vn -0.198464 -0.018041 -0.979942
vn -0.189704 -0.009327 -0.981797
vn -0.214364 0.005813 -0.976737
vn -0.188265 0.007711 -0.982088
vn -0.190824 0.007920 -0.981592
vn -0.207016 0.019481 -0.978144
vn -0.214421 0.029687 -0.976290
vn -0.219535 0.004938 -0.975592
vn -0.216841 -0.000796 -0.976207
vn -0.174187 -0.002087 -0.984710
vn -0.182491 -0.005842 -0.983190
vn -0.102258 -0.005300 -0.994744
vn -0.109932 -0.004860 -0.993927
vn -0.224889 -0.006768 -0.974361
vn -0.226051 0.002606 -0.974112
vn -0.191532 0.001470 -0.981485
vn -0.108671 0.000152 -0.994078
vn -0.528191 -0.592912 0.607840
vn -0.563056 -0.581621 0.587098
vn -0.605868 -0.544506 0.580032
vn -0.605956 -0.544927 0.579545
vn -0.484622 -0.605203 0.631563
vn -0.484622 -0.605203 0.631563
vn 0.484532 -0.605044 0.631784
vn 0.484532 -0.605044 0.631784
vn 0.528103 -0.592764 0.608061
vn 0.562998 -0.581472 0.587303
vn -0.792513 -0.286176 0.538541
vn -0.792516 -0.286172 0.538539
vn -0.676466 -0.432166 0.596344
vn -0.677185 -0.431235 0.596202
vn -0.875456 -0.160665 0.455811
vn -0.878027 -0.160264 0.450981
vn -0.858299 -0.145771 0.492010
vn -0.858353 -0.145805 0.491906
vn -0.398964 0.642073 0.654653
vn -0.398542 0.642224 0.654762
vn -0.467086 0.627957 0.622495
vn -0.467254 0.628033 0.622293
vn -0.363907 0.654062 0.663155
vn -0.363907 0.654062 0.663155
vn -0.828035 -0.159647 0.537468
vn -0.828035 -0.159647 0.537468
vn -0.831693 -0.144070 0.536220
vn -0.831993 -0.142745 0.536107
vn -0.487770 0.620404 0.614150
vn -0.494216 0.610534 0.618869
vn -0.503598 0.595764 0.625663
vn -0.503598 0.595764 0.625663
vn 0.501148 0.592363 0.630838
vn 0.501148 0.592363 0.630838
vn 0.486076 0.616888 0.619015
vn 0.492275 0.606965 0.623906
vn 0.605923 -0.544846 0.579656
vn 0.605835 -0.544426 0.580142
vn 0.676467 -0.432155 0.596350
vn 0.677186 -0.431224 0.596209
vn 0.792500 -0.286176 0.538561
vn 0.792497 -0.286179 0.538563
vn 0.878021 -0.160267 0.450992
vn 0.875442 -0.160671 0.455835
vn 0.858349 -0.145806 0.491912
vn 0.858295 -0.145773 0.492016
vn 0.831687 -0.144064 0.536230
vn 0.831987 -0.142740 0.536118
vn 0.828034 -0.159623 0.537475
vn 0.828034 -0.159623 0.537475
vn 0.363920 0.654045 0.663165
vn 0.363920 0.654045 0.663165
vn 0.398957 0.642068 0.654662
vn 0.398535 0.642219 0.654771
vn 0.466513 0.625986 0.624906
vn 0.466354 0.625935 0.625076
vn -0.105522 -0.006834 0.994394
vn 0.000000 -0.005404 0.999985
vn -0.221566 -0.016988 0.974997
vn -0.198364 0.018246 0.979959
vn -0.190128 0.009258 0.981716
vn -0.190247 -0.008102 0.981703
vn -0.206918 -0.019188 0.978170
vn -0.214497 -0.029755 0.976271
vn -0.219678 -0.004597 0.975562
vn -0.173846 0.002251 0.984770
vn -0.101223 0.005536 0.994848
vn 0.000000 0.004862 0.999988
vn -0.225088 0.006826 0.974315
vn 0.105523 -0.006834 0.994394
vn 0.221566 -0.016989 0.974997
vn 0.190127 0.009258 0.981716
vn 0.198362 0.018246 0.979959
vn 0.190247 -0.008102 0.981703
vn 0.206918 -0.019187 0.978170
vn 0.219678 -0.004596 0.975562
vn 0.214497 -0.029754 0.976271
vn 0.173847 0.002251 0.984770
vn 0.101223 0.005536 0.994848
vn 0.225088 0.006826 0.974315
vn -0.616965 -0.783172 -0.077430
vn -0.582131 -0.811840 -0.045155
vn -0.582131 -0.811840 -0.045155
vn -0.616719 -0.783389 -0.077197
vn -0.957671 -0.199685 -0.207346
vn -0.892387 -0.415333 -0.176478
vn -0.892525 -0.415016 -0.176521
vn -0.957665 -0.199684 -0.207373
vn -0.768773 -0.622779 -0.145374
vn -0.769776 -0.621496 -0.145561
vn -0.668717 -0.733714 -0.120336
vn -0.669148 -0.733285 -0.120559
vn -0.362880 0.930124 -0.056460
vn -0.300845 0.952808 -0.040617
vn -0.300845 0.952808 -0.040617
vn -0.361796 0.930563 -0.056182
vn -0.957289 -0.191941 -0.216234
vn -0.955766 -0.198019 -0.217486
vn -0.955773 -0.197991 -0.217480
vn -0.957289 -0.191941 -0.216234
vn -0.487640 0.869314 -0.080623
vn -0.487169 0.869578 -0.080630
vn -0.561039 0.825528 -0.061143
vn -0.561195 0.825427 -0.061080
vn -0.610177 0.791224 -0.040590
vn -0.610177 0.791224 -0.040590
vn -0.955332 -0.201019 -0.216638
vn -0.955337 -0.201009 -0.216626
vn 0.582127 -0.811843 -0.045157
vn 0.616963 -0.783174 -0.077431
vn 0.616716 -0.783391 -0.077197
vn 0.582127 -0.811843 -0.045157
vn 0.768773 -0.622780 -0.145373
vn 0.892388 -0.415331 -0.176477
vn 0.892527 -0.415015 -0.176520
vn 0.769775 -0.621497 -0.145560
vn 0.957671 -0.199685 -0.207345
vn 0.957665 -0.199684 -0.207373
vn 0.668715 -0.733716 -0.120334
vn 0.669146 -0.733287 -0.120557
vn 0.955766 -0.198018 -0.217485
vn 0.957289 -0.191940 -0.216232
vn 0.957289 -0.191940 -0.216232
vn 0.955774 -0.197990 -0.217479
vn 0.300843 0.952808 -0.040619
vn 0.362881 0.930123 -0.056462
vn 0.361798 0.930562 -0.056184
vn 0.300843 0.952808 -0.040619
vn 0.487660 0.869304 -0.080613
vn 0.487196 0.869564 -0.080619
vn 0.561029 0.825534 -0.061159
vn 0.561184 0.825433 -0.061096
vn 0.610160 0.791235 -0.040645
vn 0.610160 0.791235 -0.040645
vn 0.955332 -0.201018 -0.216638
vn 0.955337 -0.201008 -0.216626
s 1
g Shield Link_Shield
usemtl lambert3SG
f 50/37/1 54/46/2 55/1/3 51/39/4
f 51/39/4 55/1/3 56/2/5 52/41/6
f 52/41/6 56/2/5 57/3/7 53/43/8
f 54/46/2 48/31/9 49/32/10 55/1/3
f 55/1/3 49/32/10 46/28/11 56/2/5
f 56/2/5 46/28/11 47/47/12 57/3/7
f 61/57/13 62/61/14 65/4/15 64/65/16
f 62/61/14 63/63/17 66/5/18 65/4/15
f 63/63/17 53/43/8 57/3/7 66/5/18
f 64/65/16 65/4/15 60/54/19 59/50/20
f 65/4/15 66/5/18 58/52/21 60/54/19
f 66/5/18 57/3/7 47/47/12 58/52/21
s 3
f 24/6/22 25/7/23 3/151/24 7/161/25
f 21/152/26 22/8/27 5/159/28 1/162/29
f 23/9/30 24/6/22 7/161/25 9/158/31
f 22/8/27 23/9/30 9/158/31 5/159/28
f 6/157/32 12/10/33 11/154/34 2/155/35
f 10/156/36 13/11/37 12/10/33 6/157/32
f 8/160/38 14/12/39 13/11/37 10/156/36
f 4/150/40 15/13/41 14/12/39 8/160/38
f 11/154/34 12/10/33 17/14/42 16/153/43
f 12/10/33 13/11/37 18/15/44 17/14/42
f 13/11/37 14/12/39 19/16/45 18/15/44
f 14/12/39 15/13/41 20/17/46 19/16/45
f 16/153/43 17/14/42 22/8/27 21/152/26
f 17/14/42 18/15/44 23/9/30 22/8/27
f 18/15/44 19/16/45 24/6/22 23/9/30
f 19/16/45 20/17/46 25/7/23 24/6/22
f 45/18/47 30/148/48 3/151/24 25/7/23
f 42/139/49 26/149/50 28/146/51 43/19/52
f 44/20/53 32/145/54 30/148/48 45/18/47
f 43/19/52 28/146/51 32/145/54 44/20/53
f 29/144/55 27/142/56 34/141/57 35/21/58
f 33/143/59 29/144/55 35/21/58 36/22/60
f 31/147/61 33/143/59 36/22/60 37/23/62
f 4/150/40 31/147/61 37/23/62 15/13/41
f 34/141/57 38/140/63 39/24/64 35/21/58
f 35/21/58 39/24/64 40/25/65 36/22/60
f 36/22/60 40/25/65 41/26/66 37/23/62
f 37/23/62 41/26/66 20/17/46 15/13/41
f 38/140/63 42/139/49 43/19/52 39/24/64
f 39/24/64 43/19/52 44/20/53 40/25/65
f 40/25/65 44/20/53 45/18/47 41/26/66
f 41/26/66 45/18/47 25/7/23 20/17/46
s 8
f 67/138/67 68/33/68 78/34/69 77/134/70
f 68/33/68 67/138/67 70/137/71 69/29/72
s 9
f 69/29/73 70/137/74 94/125/75 93/48/76
s 8
f 71/27/77 72/136/78 76/133/79 75/30/80
f 72/136/78 71/27/77 74/45/81 73/135/82
f 73/135/82 74/45/81 91/44/83 92/130/84
f 75/30/80 76/133/79 77/134/70 78/34/69
s 11
f 79/132/85 80/38/86 86/40/87 85/128/88
f 80/38/86 79/132/85 82/131/89 81/35/90
s 8
f 81/35/91 82/131/92 84/129/93 83/36/94
f 83/36/94 84/129/93 92/130/84 91/44/83
s 11
f 85/128/88 86/40/87 88/42/95 87/127/96
f 87/127/96 88/42/95 90/62/97 89/126/98
s 12
f 89/126/99 90/62/100 111/60/101 112/116/102
s 9
f 93/48/76 94/125/75 102/124/103 101/53/104
f 95/123/105 96/55/106 101/53/104 102/124/103
f 96/55/106 95/123/105 98/122/107 97/51/108
f 97/51/108 98/122/107 100/121/109 99/49/110
f 99/49/110 100/121/109 113/120/111 114/66/112
f 103/119/113 104/64/114 114/66/112 113/120/111
f 104/64/114 103/119/113 106/118/115 105/58/116
s 12
f 105/58/117 106/118/118 108/117/119 107/56/120
f 107/56/120 108/117/119 110/115/121 109/59/122
f 109/59/122 110/115/121 112/116/102 111/60/101
s 1
f 46/28/11 68/33/123 69/29/124 47/47/12
f 74/45/125 71/27/126 75/30/127 48/31/9
f 49/32/10 78/34/128 68/33/123 46/28/11
f 48/31/9 75/30/127 78/34/128 49/32/10
f 80/38/129 81/35/130 83/36/131 50/37/1
f 86/40/132 80/38/129 50/37/1 51/39/4
f 88/42/133 86/40/132 51/39/4 52/41/6
f 90/62/134 88/42/133 52/41/6 53/43/8
f 83/36/131 91/44/135 54/46/2 50/37/1
f 91/44/135 74/45/125 48/31/9 54/46/2
f 58/52/21 47/47/12 69/29/124 93/48/136
f 99/49/137 59/50/20 96/55/138 97/51/139
f 60/54/19 58/52/21 93/48/136 101/53/140
f 59/50/20 60/54/19 101/53/140 96/55/138
f 107/56/141 61/57/13 104/64/142 105/58/143
f 109/59/144 62/61/14 61/57/13 107/56/141
f 111/60/145 63/63/17 62/61/14 109/59/144
f 90/62/134 53/43/8 63/63/17 111/60/145
f 104/64/142 61/57/13 64/65/16 114/66/146
f 114/66/146 64/65/16 59/50/20 99/49/137
s 14
f 7/73/147 3/67/148 70/92/149 67/68/150
f 21/89/151 1/69/152 72/72/153 73/70/154
f 1/69/152 5/71/155 76/76/156 72/72/153
f 9/75/157 7/73/147 67/68/150 77/74/158
f 5/71/155 9/75/157 77/74/158 76/76/156
s 16
f 6/81/159 2/163/160 82/80/161 79/78/162
s 14
f 2/77/163 11/79/164 84/88/165 82/164/166
s 16
f 10/83/167 6/81/159 79/78/162 85/82/168
f 8/85/169 10/83/167 85/82/168 87/84/170
f 4/109/171 8/85/169 87/84/170 89/86/172
s 14
f 11/79/164 16/87/173 92/90/174 84/88/165
f 16/87/173 21/89/151 73/70/154 92/90/174
s 18
f 3/67/175 30/91/176 94/98/177 70/92/178
f 28/99/179 26/93/180 98/96/181 95/94/182
f 26/93/180 42/95/183 100/114/184 98/96/181
f 30/91/176 32/97/185 102/100/186 94/98/177
f 32/97/185 28/99/179 95/94/182 102/100/186
f 34/111/187 27/101/188 106/104/189 103/102/190
s 21
f 27/101/191 29/103/192 108/106/193 106/104/194
f 29/103/192 33/105/195 110/108/196 108/106/193
f 33/105/195 31/107/197 112/110/198 110/108/196
f 31/107/197 4/109/199 89/86/200 112/110/198
s 18
f 38/113/201 34/111/187 103/102/190 113/112/202
f 42/95/183 38/113/201 113/112/202 100/114/184
